<svg xmlns="http://www.w3.org/2000/svg" width="37.5" height="32.949" viewBox="0 0 37.5 32.949">
  <path id="fi-rr-heart" d="M27.335,1.917a10,10,0,0,0-8.59,5.154,10,10,0,0,0-8.59-5.154A10.621,10.621,0,0,0,0,12.928c0,7.1,7.475,14.858,13.744,20.117a7.769,7.769,0,0,0,10,0c6.269-5.259,13.744-13.015,13.744-20.117A10.621,10.621,0,0,0,27.335,1.917Zm-5.6,28.738a4.643,4.643,0,0,1-5.982,0C7.729,23.922,3.126,17.462,3.126,12.928a7.5,7.5,0,0,1,7.028-7.887c4.112.251,7.251,2.544,7.028,6.657a1.562,1.562,0,1,0,3.124,0c-.222-4.114,2.916-6.406,7.028-6.657a7.5,7.5,0,0,1,7.028,7.887c0,4.534-4.6,10.994-12.628,17.721Z" transform="translate(0.005 -1.917)" fill="#707070"/>
</svg>
