<svg xmlns="http://www.w3.org/2000/svg" width="32.436" height="28.5" viewBox="0 0 32.436 28.5">
  <path id="fi-rr-heart" d="M23.643,1.917a8.646,8.646,0,0,0-7.43,4.458,8.646,8.646,0,0,0-7.43-4.458A9.186,9.186,0,0,0,0,11.441c0,6.143,6.466,12.852,11.888,17.4a6.72,6.72,0,0,0,8.646,0c5.423-4.549,11.888-11.257,11.888-17.4a9.186,9.186,0,0,0-8.781-9.524ZM18.8,26.775a4.016,4.016,0,0,1-5.174,0C6.685,20.951,2.7,15.363,2.7,11.441A6.485,6.485,0,0,1,8.783,4.619c3.557.218,6.272,2.2,6.079,5.758a1.351,1.351,0,0,0,2.7,0c-.192-3.558,2.523-5.541,6.079-5.758a6.485,6.485,0,0,1,6.079,6.822c0,3.922-3.981,9.509-10.922,15.328Z" transform="translate(0.005 -1.917)" fill="#50a433"/>
</svg>
