<svg xmlns="http://www.w3.org/2000/svg" width="30.487" height="26.787" viewBox="0 0 30.487 26.787">
  <defs>
    <style>
      .cls-1 {
        fill: #50a433;
      }
    </style>
  </defs>
  <path id="fi-rr-heart" class="cls-1" d="M22.223,1.917a8.127,8.127,0,0,0-6.984,4.19,8.127,8.127,0,0,0-6.984-4.19A8.635,8.635,0,0,0,0,10.869c0,5.774,6.077,12.079,11.174,16.355a6.316,6.316,0,0,0,8.127,0c5.1-4.275,11.174-10.581,11.174-16.355a8.635,8.635,0,0,0-8.254-8.952ZM17.67,25.281a3.775,3.775,0,0,1-4.863,0C6.283,19.807,2.541,14.555,2.541,10.869A6.1,6.1,0,0,1,8.255,4.457c3.343.2,5.895,2.068,5.714,5.412a1.27,1.27,0,1,0,2.54,0c-.181-3.344,2.371-5.208,5.714-5.412a6.1,6.1,0,0,1,5.714,6.412c0,3.686-3.742,8.938-10.266,14.407Z" transform="translate(0.005 -1.917)"/>
</svg>
