<svg id="fi-rr-shopping-cart" xmlns="http://www.w3.org/2000/svg" width="35.963" height="37.047" viewBox="0 0 35.963 37.047">
  <path id="Path_1" data-name="Path 1" d="M34.891,6.263a4.6,4.6,0,0,0-3.538-1.654H6.516l-.065-.539A4.608,4.608,0,0,0,1.877,0H1.536a1.536,1.536,0,0,0,0,3.072h.341A1.536,1.536,0,0,1,3.4,4.429L5.516,22.4a7.681,7.681,0,0,0,7.629,6.785H29.187a1.536,1.536,0,0,0,0-3.072H13.145a4.608,4.608,0,0,1-4.332-3.072H27.124a7.681,7.681,0,0,0,7.56-6.319l1.206-6.688a4.6,4.6,0,0,0-1-3.773ZM32.874,9.49l-1.207,6.688a4.608,4.608,0,0,1-4.542,3.791H8.324L6.879,7.681H31.353a1.536,1.536,0,0,1,1.521,1.81Z" fill="#fff"/>
  <circle id="Ellipse_1" data-name="Ellipse 1" cx="2.908" cy="2.908" r="2.908" transform="translate(7.854 31.231)" fill="#fff"/>
  <circle id="Ellipse_2" data-name="Ellipse 2" cx="2.908" cy="2.908" r="2.908" transform="translate(22.978 31.231)" fill="#fff"/>
</svg>
