<svg id="fi-rr-shopping-cart" xmlns="http://www.w3.org/2000/svg" width="30.712" height="31.846" viewBox="0 0 30.712 31.846">
  <defs>
    <style>
      .cls-1 {
        fill: #50a433;
      }
    </style>
  </defs>
  <path id="Path_1" data-name="Path 1" class="cls-1" d="M29.8,5.384a3.916,3.916,0,0,0-3.021-1.422H5.565L5.51,3.5A3.945,3.945,0,0,0,1.6,0H1.312a1.321,1.321,0,0,0,0,2.641H1.6a1.315,1.315,0,0,1,1.3,1.166l1.805,15.45a6.575,6.575,0,0,0,6.515,5.833h13.7a1.321,1.321,0,0,0,0-2.641h-13.7a3.937,3.937,0,0,1-3.7-2.641H23.164a6.571,6.571,0,0,0,6.456-5.432l1.03-5.749A3.972,3.972,0,0,0,29.8,5.384ZM28.074,8.158l-1.031,5.749a3.943,3.943,0,0,1-3.879,3.259H7.109L5.875,6.6h20.9a1.308,1.308,0,0,1,1.012.471A1.327,1.327,0,0,1,28.074,8.158Z"/>
  <ellipse id="Ellipse_1" data-name="Ellipse 1" class="cls-1" cx="2.484" cy="2.5" rx="2.484" ry="2.5" transform="translate(6.707 26.846)"/>
  <ellipse id="Ellipse_2" data-name="Ellipse 2" class="cls-1" cx="2.484" cy="2.5" rx="2.484" ry="2.5" transform="translate(19.623 26.846)"/>
</svg>
