<svg xmlns="http://www.w3.org/2000/svg" width="24.643" height="25.386" viewBox="0 0 24.643 25.386">
  <g id="Group_7" data-name="Group 7" transform="translate(0 -2.5)">
    <g id="fi-rr-shopping-cart" transform="translate(0 2.5)">
      <path id="Path_1" data-name="Path 1" d="M23.909,4.292a3.151,3.151,0,0,0-2.424-1.134H4.465l-.044-.369A3.158,3.158,0,0,0,1.286,0H1.053a1.053,1.053,0,1,0,0,2.105h.234a1.053,1.053,0,0,1,1.045.929L3.78,15.351A5.263,5.263,0,0,0,9.007,20H20a1.053,1.053,0,0,0,0-2.105H9.007A3.158,3.158,0,0,1,6.039,15.79H18.586a5.263,5.263,0,0,0,5.18-4.33l.826-4.583a3.152,3.152,0,0,0-.684-2.585ZM22.526,6.5,21.7,11.086a3.158,3.158,0,0,1-3.113,2.6H5.7L4.714,5.263H21.484A1.053,1.053,0,0,1,22.526,6.5Z" fill="#50a433"/>
      <circle id="Ellipse_1" data-name="Ellipse 1" cx="1.993" cy="1.993" r="1.993" transform="translate(5.382 21.4)" fill="#50a433"/>
      <circle id="Ellipse_2" data-name="Ellipse 2" cx="1.993" cy="1.993" r="1.993" transform="translate(15.745 21.4)" fill="#50a433"/>
    </g>
  </g>
</svg>
